<svg id="visual" viewBox="0 0 900 600" width="900" height="600" xmlns="http://www.w3.org/2000/svg" xmlns:xlink="http://www.w3.org/1999/xlink" version="1.1"><g stroke-width="1" stroke-linejoin="bevel"><path d="M414 270L366 205L326 267Z" fill="#112e42" stroke="#112e42"></path><path d="M366 205L307 192L326 267Z" fill="#246688" stroke="#246688"></path><path d="M523 207L362 129L366 205Z" fill="#246688" stroke="#246688"></path><path d="M366 205L362 129L307 192Z" fill="#112e42" stroke="#112e42"></path><path d="M168 332L315 371L326 267Z" fill="#0c2435" stroke="#0c2435"></path><path d="M326 267L315 371L414 270Z" fill="#00101c" stroke="#00101c"></path><path d="M315 371L400 406L414 270Z" fill="#1d4e6b" stroke="#1d4e6b"></path><path d="M400 406L510 327L414 270Z" fill="#246688" stroke="#246688"></path><path d="M414 270L523 207L366 205Z" fill="#0c2435" stroke="#0c2435"></path><path d="M510 327L523 207L414 270Z" fill="#1d4e6b" stroke="#1d4e6b"></path><path d="M362 129L324 87L307 192Z" fill="#15384f" stroke="#15384f"></path><path d="M427 0L324 87L362 129Z" fill="#112e42" stroke="#112e42"></path><path d="M199 99L212 186L307 192Z" fill="#19435d" stroke="#19435d"></path><path d="M307 192L212 186L326 267Z" fill="#246688" stroke="#246688"></path><path d="M523 207L531 129L362 129Z" fill="#0c2435" stroke="#0c2435"></path><path d="M576 380L577 293L510 327Z" fill="#246688" stroke="#246688"></path><path d="M510 327L577 293L523 207Z" fill="#19435d" stroke="#19435d"></path><path d="M523 207L608 162L531 129Z" fill="#205a7a" stroke="#205a7a"></path><path d="M315 371L386 468L400 406Z" fill="#297ea6" stroke="#297ea6"></path><path d="M400 406L520 428L510 327Z" fill="#081a28" stroke="#081a28"></path><path d="M212 186L168 332L326 267Z" fill="#1d4e6b" stroke="#1d4e6b"></path><path d="M315 371L293 504L386 468Z" fill="#00101c" stroke="#00101c"></path><path d="M168 332L236 436L315 371Z" fill="#0c2435" stroke="#0c2435"></path><path d="M324 87L199 99L307 192Z" fill="#246688" stroke="#246688"></path><path d="M212 186L97 288L168 332Z" fill="#15384f" stroke="#15384f"></path><path d="M386 468L520 428L400 406Z" fill="#15384f" stroke="#15384f"></path><path d="M520 428L576 380L510 327Z" fill="#112e42" stroke="#112e42"></path><path d="M717 290L608 162L577 293Z" fill="#297ea6" stroke="#297ea6"></path><path d="M577 293L608 162L523 207Z" fill="#15384f" stroke="#15384f"></path><path d="M494 0L427 0L531 129Z" fill="#277297" stroke="#277297"></path><path d="M531 129L427 0L362 129Z" fill="#277297" stroke="#277297"></path><path d="M324 87L276 0L199 99Z" fill="#00101c" stroke="#00101c"></path><path d="M236 436L293 504L315 371Z" fill="#00101c" stroke="#00101c"></path><path d="M386 468L506 502L520 428Z" fill="#277297" stroke="#277297"></path><path d="M427 0L276 0L324 87Z" fill="#15384f" stroke="#15384f"></path><path d="M61 173L97 288L212 186Z" fill="#277297" stroke="#277297"></path><path d="M87 469L187 529L236 436Z" fill="#205a7a" stroke="#205a7a"></path><path d="M236 436L187 529L293 504Z" fill="#112e42" stroke="#112e42"></path><path d="M567 0L494 0L531 129Z" fill="#0c2435" stroke="#0c2435"></path><path d="M520 428L618 471L576 380Z" fill="#19435d" stroke="#19435d"></path><path d="M429 600L506 502L386 468Z" fill="#277297" stroke="#277297"></path><path d="M276 0L234 0L199 99Z" fill="#277297" stroke="#277297"></path><path d="M199 99L61 173L212 186Z" fill="#112e42" stroke="#112e42"></path><path d="M608 162L620 67L531 129Z" fill="#0c2435" stroke="#0c2435"></path><path d="M620 67L567 0L531 129Z" fill="#00101c" stroke="#00101c"></path><path d="M91 60L61 173L199 99Z" fill="#246688" stroke="#246688"></path><path d="M618 471L673 372L576 380Z" fill="#112e42" stroke="#112e42"></path><path d="M576 380L673 372L577 293Z" fill="#112e42" stroke="#112e42"></path><path d="M608 162L711 168L620 67Z" fill="#0c2435" stroke="#0c2435"></path><path d="M506 502L618 471L520 428Z" fill="#00101c" stroke="#00101c"></path><path d="M87 469L236 436L168 332Z" fill="#15384f" stroke="#15384f"></path><path d="M293 504L429 600L386 468Z" fill="#277297" stroke="#277297"></path><path d="M0 323L62 389L97 288Z" fill="#112e42" stroke="#112e42"></path><path d="M97 288L62 389L168 332Z" fill="#205a7a" stroke="#205a7a"></path><path d="M234 0L91 60L199 99Z" fill="#19435d" stroke="#19435d"></path><path d="M673 372L717 290L577 293Z" fill="#15384f" stroke="#15384f"></path><path d="M717 290L711 168L608 162Z" fill="#19435d" stroke="#19435d"></path><path d="M620 67L731 0L567 0Z" fill="#19435d" stroke="#19435d"></path><path d="M295 600L429 600L293 504Z" fill="#0c2435" stroke="#0c2435"></path><path d="M506 502L590 600L618 471Z" fill="#112e42" stroke="#112e42"></path><path d="M187 529L295 600L293 504Z" fill="#1d4e6b" stroke="#1d4e6b"></path><path d="M62 389L87 469L168 332Z" fill="#277297" stroke="#277297"></path><path d="M187 529L174 600L295 600Z" fill="#15384f" stroke="#15384f"></path><path d="M0 86L0 206L61 173Z" fill="#297ea6" stroke="#297ea6"></path><path d="M61 173L0 206L97 288Z" fill="#00101c" stroke="#00101c"></path><path d="M62 389L0 413L87 469Z" fill="#00101c" stroke="#00101c"></path><path d="M429 600L512 600L506 502Z" fill="#081a28" stroke="#081a28"></path><path d="M0 206L0 323L97 288Z" fill="#00101c" stroke="#00101c"></path><path d="M234 0L79 0L91 60Z" fill="#15384f" stroke="#15384f"></path><path d="M91 60L0 86L61 173Z" fill="#081a28" stroke="#081a28"></path><path d="M798 196L737 102L711 168Z" fill="#112e42" stroke="#112e42"></path><path d="M711 168L737 102L620 67Z" fill="#297ea6" stroke="#297ea6"></path><path d="M108 600L174 600L187 529Z" fill="#081a28" stroke="#081a28"></path><path d="M618 471L703 478L673 372Z" fill="#19435d" stroke="#19435d"></path><path d="M805 401L820 306L717 290Z" fill="#112e42" stroke="#112e42"></path><path d="M717 290L798 196L711 168Z" fill="#297ea6" stroke="#297ea6"></path><path d="M714 600L703 478L618 471Z" fill="#15384f" stroke="#15384f"></path><path d="M0 323L0 413L62 389Z" fill="#112e42" stroke="#112e42"></path><path d="M87 469L108 600L187 529Z" fill="#112e42" stroke="#112e42"></path><path d="M0 0L0 86L91 60Z" fill="#0c2435" stroke="#0c2435"></path><path d="M512 600L590 600L506 502Z" fill="#19435d" stroke="#19435d"></path><path d="M0 413L0 465L87 469Z" fill="#246688" stroke="#246688"></path><path d="M820 306L798 196L717 290Z" fill="#081a28" stroke="#081a28"></path><path d="M0 600L108 600L87 469Z" fill="#246688" stroke="#246688"></path><path d="M805 100L731 0L737 102Z" fill="#00101c" stroke="#00101c"></path><path d="M737 102L731 0L620 67Z" fill="#277297" stroke="#277297"></path><path d="M79 0L0 0L91 60Z" fill="#081a28" stroke="#081a28"></path><path d="M805 401L717 290L673 372Z" fill="#15384f" stroke="#15384f"></path><path d="M833 464L805 401L703 478Z" fill="#15384f" stroke="#15384f"></path><path d="M703 478L805 401L673 372Z" fill="#297ea6" stroke="#297ea6"></path><path d="M798 196L805 100L737 102Z" fill="#297ea6" stroke="#297ea6"></path><path d="M900 103L805 100L798 196Z" fill="#297ea6" stroke="#297ea6"></path><path d="M590 600L714 600L618 471Z" fill="#15384f" stroke="#15384f"></path><path d="M0 465L0 600L87 469Z" fill="#15384f" stroke="#15384f"></path><path d="M764 600L833 464L703 478Z" fill="#081a28" stroke="#081a28"></path><path d="M900 416L900 284L820 306Z" fill="#246688" stroke="#246688"></path><path d="M900 103L830 0L805 100Z" fill="#205a7a" stroke="#205a7a"></path><path d="M900 212L798 196L820 306Z" fill="#1d4e6b" stroke="#1d4e6b"></path><path d="M805 100L830 0L731 0Z" fill="#277297" stroke="#277297"></path><path d="M714 600L764 600L703 478Z" fill="#246688" stroke="#246688"></path><path d="M900 416L820 306L805 401Z" fill="#081a28" stroke="#081a28"></path><path d="M900 284L900 212L820 306Z" fill="#1d4e6b" stroke="#1d4e6b"></path><path d="M900 212L900 103L798 196Z" fill="#081a28" stroke="#081a28"></path><path d="M900 490L900 416L833 464Z" fill="#081a28" stroke="#081a28"></path><path d="M833 464L900 416L805 401Z" fill="#00101c" stroke="#00101c"></path><path d="M900 600L900 490L833 464Z" fill="#00101c" stroke="#00101c"></path><path d="M900 103L900 0L830 0Z" fill="#15384f" stroke="#15384f"></path><path d="M764 600L900 600L833 464Z" fill="#081a28" stroke="#081a28"></path></g></svg>